<?xml version="1.0" encoding="utf-8"?>
<!-- Generator: Adobe Illustrator 27.9.0, SVG Export Plug-In . SVG Version: 6.00 Build 0)  -->
<svg version="1.1" id="图层_1" xmlns="http://www.w3.org/2000/svg" xmlns:xlink="http://www.w3.org/1999/xlink" x="0px" y="0px"
	 viewBox="0 0 155 34.7" style="enable-background:new 0 0 155 34.7;" xml:space="preserve">
<style type="text/css">
	.st0{clip-path:url(#SVGID_00000171686506568255616730000003964209946202898602_);}
	.st1{fill:#32A5FF;}
	.st2{fill:#6B53DC;}
</style>
<g>
	<defs>
		<rect id="SVGID_1_" y="0" width="155" height="35"/>
	</defs>
	<clipPath id="SVGID_00000141417054633855732810000007154068055054111110_">
		<use xlink:href="#SVGID_1_"  style="overflow:visible;"/>
	</clipPath>
	<g style="clip-path:url(#SVGID_00000141417054633855732810000007154068055054111110_);">
		<path class="st1" d="M37.2,0H19.9v17.3v17.3h17.3l-6.6-17.3h6.6V0z"/>
		<path class="st2" d="M17.3,8.7V0H0v17.3v17.3h17.3V26c0-4.8-3.9-8.7-8.7-8.7C13.4,17.3,17.3,13.5,17.3,8.7z"/>
		<path d="M78.5,27.4c0,3.8-3.1,6.9-6.9,6.9c-3.8,0-6.9-3.1-6.9-6.9s3.1-6.9,6.9-6.9C75.3,20.4,78.5,23.6,78.5,27.4z M75.2,27.4
			c0-2-1.6-3.6-3.6-3.6s-3.6,1.6-3.6,3.6c0,2,1.6,3.6,3.6,3.6C73.5,31,75.2,29.4,75.2,27.4z"/>
		<path d="M108.1,27.4c0,3.8-3.1,6.9-6.9,6.9c-3.8,0-6.9-3.1-6.9-6.9s3.1-6.9,6.9-6.9C105,20.4,108.1,23.6,108.1,27.4z M104.8,27.4
			c0-2-1.6-3.6-3.6-3.6c-2,0-3.6,1.6-3.6,3.6c0,2,1.6,3.6,3.6,3.6C103.1,31,104.8,29.4,104.8,27.4z"/>
		<path d="M121.1,20.6v3.3h-4.3v10.2h-3.3V23.9h-4.3v-3.3H121.1z"/>
		<path d="M123.7,20.6h3.3v13.5h-3.3V20.6z"/>
		<path d="M132.7,27.4c0,2,1.6,3.6,3.6,3.6c1,0,1.9-0.4,2.6-1.1l2.4,2.3c-1.3,1.4-3.1,2.1-5,2.1c-3.8,0-6.9-3.1-6.9-6.9
			c0-3.8,3.1-6.9,6.9-6.9c2,0,3.9,0.9,5.2,2.4l-2.5,2.1c-0.7-0.8-1.7-1.3-2.8-1.3C134.4,23.8,132.7,25.4,132.7,27.4z"/>
		<path d="M147.5,24.5l0.1,0.1c0.3,0.4,0.7,0.6,1.1,0.8c1,0.3,2.1,0.6,3.1,1c0.4,0.2,0.8,0.4,1.2,0.6c0.5,0.4,1,0.8,1.3,1.4
			c0.5,1,0.5,2.3,0,3.4c-0.5,1-1.5,1.9-2.6,2.3c-1.1,0.5-2.3,0.6-3.5,0.5c-1.9-0.1-3.8-0.8-5.2-2.2l2.7-2.5c1,1,2.4,1.6,3.9,1.6
			c0.8,0,1.7-0.4,1.6-1.3c0-0.1,0-0.1-0.1-0.2c-0.3-0.6-0.8-0.8-1.4-1c-0.9-0.3-1.7-0.5-2.6-0.8c-0.9-0.3-1.7-0.7-2.3-1.4
			c-0.6-0.7-1-1.6-1-2.5c0-0.9,0.4-1.9,1-2.5c0.7-0.8,1.6-1.2,2.7-1.5c1.2-0.4,2.6-0.4,3.8-0.1c1.3,0.3,2.5,0.8,3.6,1.6l-1.1,1.1
			c-0.5,0.5-1,1-1.5,1.5c-0.9-1-2.4-1.5-3.7-1.2C148,23.4,147.3,23.8,147.5,24.5L147.5,24.5z"/>
		<path d="M91.4,27.3c0.5-0.7,0.8-1.6,0.8-2.5c0-2.3-1.9-4.2-4.2-4.2h-7.6l0.7,3.3H88c0.5,0,0.9,0.4,0.9,0.9c0,0.5-0.4,0.9-0.9,0.9
			h-7.6l0.7,3.3h7c0.5,0,0.9,0.4,0.9,0.9s-0.4,0.9-0.9,0.9h-7.7l0.7,3.3h7.1c2.3,0,4.2-1.9,4.2-4.2C92.3,29,91.9,28.1,91.4,27.3
			L91.4,27.3z"/>
		<path d="M78.5,7.2c0,3.8-3.1,6.9-6.9,6.9c-3.8,0-6.9-3.1-6.9-6.9c0-3.8,3.1-6.9,6.9-6.9C75.4,0.3,78.5,3.4,78.5,7.2z M75.3,7.2
			c0-2-1.6-3.6-3.6-3.6c-2,0-3.6,1.6-3.6,3.6s1.6,3.6,3.6,3.6C73.6,10.9,75.3,9.3,75.3,7.2z"/>
		<path d="M93.7,7.2c0,3.8-3.1,6.9-6.9,6.9s-6.9-3.1-6.9-6.9c0-3.8,3.1-6.9,6.9-6.9C90.6,0.3,93.7,3.4,93.7,7.2z M90.5,7.2
			c0-2-1.6-3.6-3.6-3.6c-2,0-3.6,1.6-3.6,3.6s1.6,3.6,3.6,3.6C88.8,10.9,90.5,9.3,90.5,7.2z"/>
		<path d="M99.7,4.4l0.1,0.1c0.3,0.4,0.7,0.6,1.1,0.8c1,0.3,2.1,0.6,3.1,1c0.4,0.2,0.8,0.4,1.2,0.6c0.5,0.4,1,0.8,1.3,1.4
			c0.5,1,0.5,2.3,0,3.4c-0.5,1-1.5,1.9-2.6,2.3c-1.1,0.5-2.3,0.6-3.5,0.5c-1.9-0.1-3.8-0.8-5.2-2.1l2.7-2.5c1,1,2.4,1.6,3.9,1.6
			c0.8,0,1.7-0.4,1.6-1.3c0-0.1,0-0.1-0.1-0.2c-0.3-0.6-0.8-0.8-1.4-1c-0.9-0.3-1.7-0.5-2.6-0.8C98.4,8,97.6,7.6,97,6.9
			c-0.6-0.7-1-1.6-1-2.5c0-0.9,0.4-1.9,1-2.5c0.7-0.8,1.6-1.2,2.7-1.5c1.2-0.4,2.6-0.4,3.8-0.1c1.3,0.3,2.5,0.8,3.6,1.6L106,2.9
			c-0.5,0.5-1,1-1.5,1.5c-0.9-1-2.4-1.5-3.7-1.2C100.2,3.3,99.5,3.7,99.7,4.4L99.7,4.4z"/>
		<path d="M121.1,0.5v3.3h-4.3V14h-3.3V3.8h-4.3V0.5H121.1z"/>
		<path d="M123.7,0.5h10.6v3.3H127v1.8h6.6v3.3H127v1.8h7.3V14h-10.6V0.5z"/>
		<path d="M62,7.2c0.5-0.7,0.8-1.6,0.8-2.5c0-2.3-1.9-4.2-4.2-4.2H51l0.7,3.3h6.9c0.5,0,0.9,0.4,0.9,0.9c0,0.5-0.4,0.9-0.9,0.9H51
			l0.7,3.3h7c0.5,0,0.9,0.4,0.9,0.9c0,0.5-0.4,0.9-0.9,0.9H51l0.7,3.3h7.1c2.3,0,4.2-1.9,4.2-4.2C62.9,8.8,62.6,7.9,62,7.2L62,7.2z"
			/>
		<path d="M149,4.7c0-2.3-1.9-4.2-4.2-4.2h-7.7v3.3h7.7c0.5,0,0.9,0.4,0.9,0.9s-0.4,0.9-0.9,0.9h-7.7V14h3.3V8.9h2.8l2.2,5.1h3.6
			l-2.4-5.5C148,7.8,149,6.4,149,4.7L149,4.7z"/>
		<path d="M62.9,24.8c0-2.3-1.9-4.2-4.2-4.2H51v3.3h7.7c0.5,0,0.9,0.4,0.9,0.9c0,0.5-0.4,0.9-0.9,0.9H51v8.4h3.3V29h2.8l2.2,5.1h3.6
			l-2.4-5.5C62,27.9,62.9,26.5,62.9,24.8L62.9,24.8z"/>
	</g>
</g>
</svg>
